<svg width="24" height="24" viewBox="0 0 24 24" fill="none" xmlns="http://www.w3.org/2000/svg">
<path fill-rule="evenodd" clip-rule="evenodd" d="M4.125 3H19.875C20.4963 3 21 3.50367 21 4.125V19.875C21 20.4963 20.4963 21 19.875 21H4.125C3.50368 21 3 20.4963 3 19.875V4.125C3 3.50368 3.50367 3 4.125 3ZM1 4.3C1 2.47746 2.47746 1 4.3 1H19.7C21.5226 1 23 2.47746 23 4.3V19.7C23 21.5226 21.5226 23 19.7 23H4.3C2.47746 23 1 21.5226 1 19.7V4.3ZM12 10C9.23858 10 7 7.76143 7 5H9C9 7.13838 10.6691 8.33333 12 8.33333C13.3309 8.33333 15 7.13838 15 5H17C17 7.76143 14.7614 10 12 10Z" fill="black"/>
</svg>
