<svg width="24" height="24" viewBox="0 0 24 24" fill="none" xmlns="http://www.w3.org/2000/svg">
<path fill-rule="evenodd" clip-rule="evenodd" d="M1 4.66667C1 2.64163 2.64163 1 4.66667 1H19.3333C21.3584 1 23 2.64163 23 4.66667V19.3333C23 21.3584 21.3584 23 19.3333 23H4.66667C2.64163 23 1 21.3584 1 19.3333V4.66667ZM4.28571 3H19.7143C20.4244 3 21 3.57564 21 4.28571V19.7143C21 20.4244 20.4244 21 19.7143 21H4.28571C3.57564 21 3 20.4244 3 19.7143V4.28571C3 3.57564 3.57564 3 4.28571 3ZM18 11C17.4477 11 17 10.5523 17 10C17 9.4477 17.4477 9 18 9C18.5523 9 19 9.4477 19 10C19 10.5523 18.5523 11 18 11ZM18 15C17.4477 15 17 14.5523 17 14C17 13.4477 17.4477 13 18 13C18.5523 13 19 13.4477 19 14C19 14.5523 18.5523 15 18 15ZM5 18C5 18.5523 5.44772 19 6 19C6.55228 19 7 18.5523 7 18C7 17.4477 6.55228 17 6 17C5.44772 17 5 17.4477 5 18ZM9 18C9 18.5523 9.4477 19 10 19C10.5523 19 11 18.5523 11 18C11 17.4477 10.5523 17 10 17C9.4477 17 9 17.4477 9 18ZM13 18C13 18.5523 13.4477 19 14 19C14.5523 19 15 18.5523 15 18C15 17.4477 14.5523 17 14 17C13.4477 17 13 17.4477 13 18ZM17 18C17 18.5523 17.4477 19 18 19C18.5523 19 19 18.5523 19 18C19 17.4477 18.5523 17 18 17C17.4477 17 17 17.4477 17 18ZM13 14C13 14.5523 13.4477 15 14 15C14.5523 15 15 14.5523 15 14C15 13.4477 14.5523 13 14 13C13.4477 13 13 13.4477 13 14ZM9 14C9 14.5523 9.4477 15 10 15C10.5523 15 11 14.5523 11 14C11 13.4477 10.5523 13 10 13C9.4477 13 9 13.4477 9 14ZM5 14C5 14.5523 5.44772 15 6 15C6.55228 15 7 14.5523 7 14C7 13.4477 6.55228 13 6 13C5.44772 13 5 13.4477 5 14ZM13 10C13 10.5523 13.4477 11 14 11C14.5523 11 15 10.5523 15 10C15 9.4477 14.5523 9 14 9C13.4477 9 13 9.4477 13 10ZM9 10C9 10.5523 9.4477 11 10 11C10.5523 11 11 10.5523 11 10C11 9.4477 10.5523 9 10 9C9.4477 9 9 9.4477 9 10ZM5 10C5 10.5523 5.44772 11 6 11C6.55228 11 7 10.5523 7 10C7 9.4477 6.55228 9 6 9C5.44772 9 5 9.4477 5 10Z" fill="#009900"/>
</svg>
