<svg width="22" height="22" viewBox="0 0 22 22" fill="none" xmlns="http://www.w3.org/2000/svg">
<path fill-rule="evenodd" clip-rule="evenodd" d="M17.4167 8.25C17.4167 4.70617 14.5439 1.83333 11 1.83333C7.45621 1.83333 4.58337 4.70617 4.58337 8.25C4.58337 11.4826 6.97377 14.1569 10.0834 14.6017V19.25C10.0834 19.7563 10.4938 20.1667 11 20.1667C11.5063 20.1667 11.9167 19.7563 11.9167 19.25V14.6017C15.0263 14.1569 17.4167 11.4826 17.4167 8.25ZM6.41671 8.24999C6.41671 5.71869 8.46874 3.66666 11 3.66666C13.5313 3.66666 15.5834 5.71869 15.5834 8.24999C15.5834 10.7813 13.5313 12.8333 11 12.8333C8.46874 12.8333 6.41671 10.7813 6.41671 8.24999ZM13.75 8.24999C13.75 9.76878 12.5188 11 11 11C9.48126 11 8.25004 9.76878 8.25004 8.24999C8.25004 6.73121 9.48126 5.49999 11 5.49999C12.5188 5.49999 13.75 6.73121 13.75 8.24999Z" fill="#009900"/>
</svg>
