<svg width="24" height="24" viewBox="0 0 24 24" fill="none" xmlns="http://www.w3.org/2000/svg">
<path fill-rule="evenodd" clip-rule="evenodd" d="M20 1C21.6569 1 23 2.34315 23 4V20C23 21.6569 21.6569 23 20 23H4C2.34315 23 1 21.6569 1 20V4C1 2.34315 2.34315 1 4 1H20ZM20 3H4C3.48716 3 3.06449 3.38604 3.00673 3.88338L3 4V20C3 20.5128 3.38604 20.9355 3.88338 20.9933L4 21H20C20.5128 21 20.9355 20.614 20.9933 20.1166L21 20V4C21 3.48716 20.614 3.06449 20.1166 3.00673L20 3ZM19 15.6C19 15.2686 18.7314 15 18.4 15H15.6C15.2686 15 15 15.2686 15 15.6V18.4C15 18.7314 15.2686 19 15.6 19H18.4C18.7314 19 19 18.7314 19 18.4V15.6Z" fill="#009900"/>
</svg>
