<svg width="24" height="24" viewBox="0 0 24 24" fill="none" xmlns="http://www.w3.org/2000/svg">
<path fill-rule="evenodd" clip-rule="evenodd" d="M18.6554 5.34459C19.1149 5.80405 19.1149 6.54899 18.6554 7.00844L7.00845 18.6554C6.54899 19.1149 5.80406 19.1149 5.3446 18.6554C4.88513 18.1959 4.88513 17.4511 5.3446 16.9915L16.9916 5.34459C17.451 4.88514 18.196 4.88514 18.6554 5.34459ZM14.4958 14.4958C15.4147 13.5769 16.9046 13.5769 17.8235 14.4958C18.7424 15.4148 18.7424 16.9046 17.8235 17.8234C16.9046 18.7424 15.4147 18.7424 14.4958 17.8234C13.5768 16.9046 13.5768 15.4148 14.4958 14.4958ZM9.50423 6.17652C10.4232 7.09545 10.4232 8.58531 9.50423 9.50422C8.58531 10.4231 7.09544 10.4231 6.17652 9.50422C5.25761 8.58531 5.25761 7.09545 6.17652 6.17652C7.09544 5.2576 8.58531 5.2576 9.50423 6.17652Z" fill="white"/>
</svg>
