<svg width="24" height="24" viewBox="0 0 24 24" fill="none" xmlns="http://www.w3.org/2000/svg">
<path fill-rule="evenodd" clip-rule="evenodd" d="M17.1528 15.659C19.7389 12.3378 19.5052 7.53276 16.4521 4.47958C13.146 1.17347 7.78571 1.17347 4.47959 4.47958C1.17347 7.7857 1.17347 13.146 4.47959 16.4521C7.53278 19.5053 12.3379 19.7388 15.6591 17.1528C15.6734 17.169 15.6883 17.1849 15.7038 17.2004L20.1935 21.69C20.6068 22.1033 21.2768 22.1033 21.6901 21.69C22.1033 21.2768 22.1033 20.6068 21.6901 20.1934L17.2004 15.7038C17.1849 15.6884 17.169 15.6734 17.1528 15.659ZM15.0962 5.90381C17.6346 8.44222 17.6346 12.5578 15.0962 15.0962C12.5578 17.6346 8.44221 17.6346 5.90381 15.0962C3.3654 12.5578 3.3654 8.44222 5.90381 5.90381C8.44221 3.3654 12.5578 3.3654 15.0962 5.90381Z" fill="white"/>
</svg>
