<svg width="24" height="24" viewBox="0 0 24 24" fill="none" xmlns="http://www.w3.org/2000/svg">
<path fill-rule="evenodd" clip-rule="evenodd" d="M17 6C17 8.76142 14.7614 11 12 11C9.23858 11 7 8.76142 7 6C7 3.23858 9.23858 1 12 1C14.7614 1 17 3.23858 17 6ZM15 6C15 7.65685 13.6569 9 12 9C10.3431 9 9 7.65685 9 6C9 4.34315 10.3431 3 12 3C13.6569 3 15 4.34315 15 6ZM4 15C4 13.3431 5.34315 12 7 12H17C18.6569 12 20 13.3431 20 15V23H18V15C18 14.4477 17.5523 14 17 14H7C6.44772 14 6 14.4477 6 15V23H4V15Z" fill="#009900"/>
</svg>
