<svg width="24" height="24" viewBox="0 0 24 24" fill="none" xmlns="http://www.w3.org/2000/svg">
<path fill-rule="evenodd" clip-rule="evenodd" d="M7.14597 2C3.76333 2 1 4.86473 1 8.3756C1 10.1312 1.69006 11.7353 2.80134 12.888L11.295 21.698C11.6851 22.1007 12.3149 22.1007 12.705 21.698L21.1987 12.888C22.3099 11.7353 23 10.1312 23 8.3756C23 4.86473 20.2367 2 16.854 2C14.7518 2 13.1116 3.27916 12.0037 4.95969C10.8955 3.27786 9.24904 2 7.14597 2ZM7.14597 4.07408C8.96415 4.07408 10.4927 5.28027 11.0587 6.95326C11.1999 7.36851 11.5778 7.64619 12.0018 7.64619C12.4259 7.64619 12.8038 7.36851 12.945 6.95326C13.5113 5.28002 15.0362 4.07408 16.854 4.07408C19.1571 4.07408 21.003 5.98892 21.003 8.3756C21.003 9.56873 20.5403 10.6361 19.7886 11.4158L12 19.4936L4.2151 11.4158C3.46337 10.6361 3.00067 9.56873 3.00067 8.3756C3.00067 5.98892 4.84288 4.07408 7.14597 4.07408Z" fill="#009900"/>
</svg>
