<svg width="24" height="24" viewBox="0 0 24 24" fill="none" xmlns="http://www.w3.org/2000/svg">
<path fill-rule="evenodd" clip-rule="evenodd" d="M20 3C21.6569 3 23 4.34315 23 6V18C23 19.6569 21.6569 21 20 21H4C2.34315 21 1 19.6569 1 18V6C1 4.34315 2.34315 3 4 3H20ZM20 5H4C3.44772 5 3 5.44772 3 6V18C3 18.5523 3.44772 19 4 19H20C20.5523 19 21 18.5523 21 18V6C21 5.44771 20.5523 5 20 5ZM14 15C14.5523 15 15 15.4477 15 16C15 16.5523 14.5523 17 14 17H6C5.44772 17 5 16.5523 5 16C5 15.4477 5.44772 15 6 15H14ZM18 15C18.5523 15 19 15.4477 19 16C19 16.5523 18.5523 17 18 17H17C16.4477 17 16 16.5523 16 16C16 15.4477 16.4477 15 17 15H18ZM18 11C18.5523 11 19 11.4477 19 12C19 12.5523 18.5523 13 18 13H10C9.44772 13 9 12.5523 9 12C9 11.4477 9.44772 11 10 11H18ZM7 11C7.55228 11 8 11.4477 8 12C8 12.5523 7.55228 13 7 13H6C5.44772 13 5 12.5523 5 12C5 11.4477 5.44772 11 6 11H7Z" fill="black"/>
</svg>
