<svg width="24" height="24" viewBox="0 0 24 24" fill="none" xmlns="http://www.w3.org/2000/svg">
<path fill-rule="evenodd" clip-rule="evenodd" d="M18.4804 4.51552L9.72886 2.03383C9.48738 1.9678 9.22925 1.99887 9.01691 2.12315L4.96591 4.52717C4.39552 4.77573 4 5.31556 4 5.93696V17.9338C4 18.7454 4.67031 19.4134 5.51965 19.4872L14.4002 22H14.5293C15.4494 22 16.1988 21.3009 16.1988 20.4426V8.44584C16.1988 7.63414 15.5285 6.96614 14.6792 6.89235L7.57221 4.8767L9.60812 3.66887L18.0807 6.07677C18.1473 6.09619 18.2139 6.10784 18.2847 6.11173V18.0658C18.2847 18.5085 18.6677 18.8658 19.1423 18.8658C19.617 18.8658 20 18.5085 20 18.0658V6.06512C20 5.25342 19.3297 4.58543 18.4804 4.51552ZM5.71948 17.891V6.03017L7.59718 6.56224C7.59718 6.57 7.59718 6.57777 7.59718 6.58554V18.3998L5.79859 17.891H5.71948ZM14.4793 8.49245V20.3494L9.31668 18.8853V7.05159L14.4002 8.49245H14.4793Z" fill="#E24C4B"/>
</svg>
