<svg width="24" height="24" viewBox="0 0 24 24" fill="none" xmlns="http://www.w3.org/2000/svg">
<path d="M19 12C19 8.47353 16.3923 5.55612 13 5.07089V8.48551C13 8.81688 12.7314 9.08551 12.4 9.08551H11.6C11.2686 9.08551 11 8.81688 11 8.48551V3.59224C11 3.28639 11.23 3.02731 11.5355 3.01178C11.6893 3.00396 11.8442 3 12 3C16.9706 3 21 7.02944 21 12C21 16.9706 16.9706 21 12 21C7.02944 21 3 16.9706 3 12C3 9.61825 3.92518 7.45258 5.43577 5.84278C5.65735 5.60665 6.02836 5.61399 6.25733 5.84296L6.81945 6.40508C7.06069 6.64632 7.05042 7.03842 6.82083 7.29077C5.68958 8.53418 5 10.1866 5 12C5 15.866 8.13401 19 12 19C15.866 19 19 15.866 19 12Z" fill="#E24C4B"/>
<path d="M7.70711 10.1213C7.31658 9.73077 7.31658 9.0976 7.70711 8.70708C8.09763 8.31655 8.7308 8.31655 9.12132 8.70708L11.9497 11.5355C12.3403 11.926 12.3403 12.5592 11.9497 12.9497C11.5592 13.3402 10.9261 13.3402 10.5355 12.9497L7.70711 10.1213Z" fill="#E24C4B"/>
</svg>
