<svg width="24" height="24" viewBox="0 0 24 24" fill="none" xmlns="http://www.w3.org/2000/svg">
<path fill-rule="evenodd" clip-rule="evenodd" d="M17.1269 7L17.6785 7.00678C20.6031 7.07932 21.745 7.84842 21.9463 10.1533C22.1432 12.4056 21.8018 14.0869 20.8701 15.2634C19.9859 16.3802 18.7683 16.8808 16.9703 16.985C16.7984 16.995 16.6286 17 16.4658 17C14.3285 17 12.9288 16.0479 12.158 14.0591L12.0649 13.8051L12 13.6079L11.9341 13.8104C11.2451 15.7984 9.9813 16.831 8.04451 16.9809L7.78806 16.9954L7.53464 17C7.37188 17 7.20204 16.995 7.02966 16.985C5.23075 16.8803 4.01405 16.3801 3.12994 15.2635C2.19815 14.0866 1.85685 12.4055 2.05368 10.1531C2.2605 7.79012 3.35108 7.07312 6.50085 7.00553L6.7929 7.00114L17.1269 7ZM12.992 10.3689C12.9675 9.9496 13.0589 9.62649 13.271 9.38068C13.8084 8.7578 15.0393 8.70642 16.3614 8.70642L16.8814 8.7069C18.951 8.7069 20.2268 8.79386 20.3773 10.5027C20.5317 12.2514 20.2705 13.5443 19.6012 14.3461C19.0149 15.0484 18.1251 15.3896 16.8814 15.3896C15.1021 15.3896 13.2487 14.7931 12.992 10.3689ZM7.11921 8.7069C5.0492 8.7069 3.77323 8.79386 3.62292 10.5027C3.4687 12.2514 3.72991 13.5443 4.39941 14.3461C4.98574 15.0484 5.87552 15.3896 7.11943 15.3896C8.89855 15.3896 10.7522 14.7934 11.0089 10.3689C11.0329 9.9496 10.9417 9.62649 10.7297 9.38068C10.1923 8.7578 8.96115 8.70642 7.63926 8.70642L7.11921 8.7069Z" fill="#E24C4B"/>
</svg>
