<svg width="24" height="24" viewBox="0 0 24 24" fill="none" xmlns="http://www.w3.org/2000/svg">
<path d="M9.79091 7.58182C9.79091 7.9885 9.46123 8.31818 9.05455 8.31818C8.64786 8.31818 8.31818 7.9885 8.31818 7.58182C8.31818 7.17514 8.64786 6.84545 9.05455 6.84545C9.46123 6.84545 9.79091 7.17514 9.79091 7.58182Z" fill="#E24C4B"/>
<path d="M14.9455 8.31818C15.3521 8.31818 15.6818 7.9885 15.6818 7.58182C15.6818 7.17514 15.3521 6.84545 14.9455 6.84545C14.5388 6.84545 14.2091 7.17514 14.2091 7.58182C14.2091 7.9885 14.5388 8.31818 14.9455 8.31818Z" fill="#E24C4B"/>
<path fill-rule="evenodd" clip-rule="evenodd" d="M15.6811 3C17.736 3 19.4252 4.62906 19.5228 6.66112L19.5273 6.84693V9.35847C20.4101 9.90806 21 10.8875 21 12V15.6811C21 17.0858 20.0693 18.2727 18.7909 18.6587V20.1C18.7909 20.5971 18.388 21 17.8909 21C17.4294 21 17.049 20.6526 16.997 20.205L16.9909 20.1V18.7909H7.00909V20.1C7.00909 20.5971 6.60615 21 6.10909 21C5.64754 21 5.26713 20.6526 5.21515 20.205L5.20909 20.1V18.6585C3.93058 18.2725 3 17.0858 3 15.6811V12C3 10.8875 3.58986 9.90806 4.47273 9.35847V6.84693C4.47273 4.79142 6.10164 3.10205 8.13383 3.00445L8.31965 3H15.6811ZM6.27273 8.89518C7.90928 8.9808 9.21818 10.3428 9.21818 12L9.2181 13.3086H14.781L14.7818 12C14.7818 10.345 16.0873 8.9844 17.7208 8.89553L17.7273 8.89535V6.84693C17.7273 5.77014 16.8794 4.87729 15.8204 4.80476L15.6811 4.8H8.31965C7.24279 4.8 6.35001 5.64791 6.27748 6.70756L6.27273 6.84693V8.89518ZM17.8909 10.6909C18.6089 10.6909 19.2 11.2821 19.2 12V15.6811C19.2 16.4048 18.6141 16.9909 17.8909 16.9909H6.10983C5.38599 16.9909 4.8 16.4049 4.8 15.6811V12C4.8 11.2821 5.39115 10.6909 6.10909 10.6909C6.82703 10.6909 7.41818 11.2821 7.41818 12V13.4676C7.41818 14.374 8.15323 15.1091 9.0597 15.1091H14.9403C15.8468 15.1091 16.5818 14.374 16.5818 13.4676V12C16.5818 11.2821 17.173 10.6909 17.8909 10.6909Z" fill="#E24C4B"/>
</svg>
