<svg width="24" height="24" viewBox="0 0 24 24" fill="none" xmlns="http://www.w3.org/2000/svg">
<path fill-rule="evenodd" clip-rule="evenodd" d="M11.1796 2C12.167 2 13.1992 2.04296 14.2314 2.12889C15.4538 2.20961 16.6367 2.36613 17.8543 2.52726L18.0909 2.55854C18.6295 2.64447 19.0783 3.16005 18.9885 3.67563C18.8539 4.36307 18.7192 5.05052 18.5846 5.78092C18.5397 6.08167 18.4948 6.38242 18.45 6.72614C18.3602 7.06986 18.2256 7.37062 17.8217 7.49951C17.7997 7.50794 17.7772 7.51678 17.7543 7.52579C17.544 7.60866 17.2972 7.70591 17.0138 7.62841C16.8792 7.58544 16.8792 7.67137 16.8792 7.80027C16.8792 7.99361 16.868 8.19769 16.8568 8.40178C16.8456 8.60586 16.8343 8.80994 16.8343 9.00329C16.8343 9.94851 16.7895 10.8937 16.7446 11.839C16.7446 11.9249 16.7895 11.9679 16.8792 11.9679C16.9465 11.9679 17.0026 11.9786 17.0587 11.9894C17.1148 12.0001 17.1709 12.0108 17.2382 12.0108C17.3729 12.0968 17.4178 12.1827 17.4178 12.3546V13.2568C17.2755 13.4611 17.3305 13.6925 17.3819 13.908C17.3953 13.9644 17.4085 14.0197 17.4178 14.0731C17.4626 14.288 17.4963 14.5135 17.53 14.7391C17.5636 14.9647 17.5973 15.1902 17.6421 15.4051C17.7611 15.8983 17.845 16.4251 17.9248 16.9263L17.9563 17.1237L18.0092 17.4091C18.1255 18.0352 18.2373 18.6373 18.3153 19.2719C18.3153 19.3578 18.3153 19.4438 18.2704 19.4867C18.0909 19.7445 17.8217 19.9164 17.4626 19.9593C17.1036 20.0023 16.7895 20.0023 16.4304 19.9164C16.2509 19.8734 16.0714 19.7445 15.9368 19.6156C15.8919 19.5727 15.8919 19.4867 15.8919 19.3578C15.8694 18.9282 15.8919 18.4985 15.9143 18.0689C15.9368 17.6392 15.9592 17.2096 15.9368 16.7799C15.9368 16.4148 15.948 16.0389 15.9592 15.663C15.9704 15.287 15.9816 14.911 15.9816 14.5458C15.9816 14.5361 15.9839 14.5243 15.9864 14.5113C15.995 14.4663 16.0063 14.4072 15.9368 14.3739C15.9068 14.3739 15.8769 14.4121 15.847 14.4503C15.832 14.4694 15.8171 14.4885 15.8021 14.5028C15.7124 14.5672 15.6114 14.6317 15.5104 14.6961C15.4094 14.7606 15.3085 14.825 15.2187 14.8895C15.1289 14.9324 15.1289 15.0184 15.1289 15.1043C15.2636 15.7917 15.3533 16.4792 15.4431 17.1666C15.488 17.5963 15.5329 18.0259 15.6226 18.4556C15.6451 18.6704 15.6787 18.8852 15.7124 19.1C15.746 19.3149 15.7797 19.5297 15.8021 19.7445L15.9368 21.2913C15.9368 21.4202 15.8919 21.5061 15.8021 21.592C15.5777 21.8068 15.3533 21.9357 14.9943 21.9787C14.5455 22.0217 14.0967 22.0217 13.6928 21.7639C13.5909 21.7313 13.5146 21.6495 13.4447 21.5744C13.4223 21.5503 13.4004 21.5269 13.3787 21.5061C13.3338 21.4631 13.3338 21.4202 13.3338 21.3772C13.3562 20.8831 13.3899 20.3997 13.4236 19.9164C13.4572 19.433 13.4909 18.9497 13.5133 18.4556C13.5582 17.7252 13.6031 16.9948 13.648 16.3073C13.648 15.9206 13.6928 15.534 13.7377 15.1902C13.7377 15.0613 13.6928 15.0184 13.5582 14.9754C12.9299 14.8895 12.3016 14.8036 11.6284 14.7606C11.2245 14.6747 11.2245 14.7176 11.2694 15.0613C11.2694 15.1639 11.2796 15.2664 11.2903 15.3736C11.302 15.491 11.3143 15.614 11.3143 15.7488C11.3143 16.1722 11.353 16.5772 11.3923 16.9879C11.4128 17.2023 11.4335 17.4182 11.4489 17.6392C11.4489 17.94 11.4489 18.2407 11.5387 18.5845C11.5835 18.7134 11.4938 18.7993 11.404 18.8852C11.1347 19.0571 10.8655 19.143 10.5962 19.143C10.5364 19.143 10.4765 19.1442 10.4167 19.1454C10.1175 19.1514 9.81831 19.1573 9.51912 19.0141C9.37652 18.98 9.29056 18.8916 9.19375 18.7921C9.16869 18.7664 9.14289 18.7399 9.11521 18.7134C9.04478 18.6459 9.05725 18.5785 9.06589 18.5318C9.06826 18.519 9.07033 18.5078 9.07033 18.4985C9.11521 18.0689 9.16009 17.6822 9.24985 17.2526C9.27229 16.9733 9.30595 16.7048 9.3396 16.4362C9.37326 16.1677 9.40692 15.8992 9.42936 15.6199C9.47424 15.3192 9.51912 15.0184 9.564 14.7606C9.60888 14.5458 9.564 14.5028 9.33961 14.5028C9.11521 14.5028 8.89082 14.5028 8.62155 14.4169C8.48691 14.3739 8.44203 14.4169 8.44203 14.5458C8.44203 15.5769 8.44203 16.5651 8.48691 17.5963V17.6822C8.48691 18.5845 8.48691 19.4438 8.53179 20.346C8.53179 20.6468 8.39716 20.7757 8.17276 20.9046C7.90349 21.0764 7.54446 21.0764 7.18543 21.0764C7.11812 21.0764 7.06202 21.0657 7.00592 21.055C6.94982 21.0442 6.89372 21.0335 6.8264 21.0335C6.55128 20.9958 6.345 20.7934 6.14727 20.5994C6.11922 20.5719 6.09134 20.5446 6.06347 20.5179C6.01859 20.4749 5.97371 20.389 6.01859 20.3031C6.08591 19.8949 6.16444 19.4867 6.24298 19.0786C6.32152 18.6704 6.40006 18.2622 6.46738 17.8541L7.00592 15.0184C7.00592 14.8349 7.03866 14.6514 7.07617 14.4412C7.08258 14.4052 7.08913 14.3686 7.09568 14.3309V14.245C6.95208 14.08 6.97389 13.8975 6.99645 13.7086C7.00914 13.6023 7.02208 13.494 7.00592 13.3857C6.93072 12.9537 7.20206 12.8234 7.47681 12.6914C7.52998 12.6658 7.58328 12.6402 7.63422 12.6123C7.80652 12.5244 7.98176 12.4364 8.15844 12.3477C8.67203 12.0899 9.19776 11.8259 9.69863 11.5382C9.87815 11.4523 10.1025 11.4093 10.2821 11.4093C10.3718 11.4093 10.4167 11.3664 10.4167 11.2804C10.4167 10.8078 10.4616 10.2922 10.5064 9.81962C10.5064 9.04226 10.5471 8.30385 10.5898 7.53021L10.5962 7.41358C10.5962 7.26517 10.5962 7.20046 10.5639 7.16782C10.5388 7.14258 10.4945 7.13651 10.4158 7.12575C10.39 7.12223 10.3606 7.1182 10.3269 7.11283C10.0577 7.06986 9.78839 7.0269 9.564 6.85504C9.38448 6.64021 9.24985 6.42539 9.20497 6.1676C9.15805 5.83073 9.1234 5.48211 9.08819 5.1279C9.05603 4.80446 9.02342 4.47635 8.98058 4.14825C8.98058 3.80453 8.9357 3.46081 8.89082 3.11709C8.84594 2.64447 9.16009 2.17186 9.65376 2.08593C9.78839 2.04296 9.96791 2 10.1474 2H11.1796ZM15.488 7.80027V7.71434C15.488 7.49951 15.488 7.45655 15.2187 7.45655C15.1514 7.45655 15.0728 7.44581 14.9943 7.43507C14.9158 7.42432 14.8372 7.41358 14.7699 7.41358C14.611 7.41358 14.5325 7.41358 14.4879 7.45248C14.4443 7.4905 14.4331 7.56568 14.4109 7.71434V8.96032L14.405 9.07799C14.3622 9.93753 14.3211 10.7612 14.3211 11.6241C14.3211 11.753 14.366 11.796 14.5006 11.796C14.6128 11.796 14.725 11.8067 14.8372 11.8175C14.9494 11.8282 15.0616 11.839 15.1738 11.839C15.2636 11.839 15.3533 11.796 15.3085 11.7101C15.3085 11.5812 15.3197 11.4523 15.3309 11.3234C15.3421 11.1945 15.3533 11.0656 15.3533 10.9367C15.3684 10.5898 15.3785 10.2429 15.3885 9.89442C15.4084 9.20696 15.4284 8.51301 15.488 7.80027ZM11.8977 11.3664V11.0226C11.9426 9.99148 11.9874 8.91736 11.9874 7.80027C11.9874 7.71434 11.9987 7.63915 12.0099 7.56396C12.0211 7.48877 12.0323 7.41358 12.0323 7.32765C12.0323 7.28469 12.0323 7.19876 12.167 7.24172H12.8401C12.9475 7.26228 13.0035 7.27301 13.0327 7.30685C13.0645 7.34372 13.0645 7.40805 13.0645 7.54248C13.0623 7.58124 13.06 7.6199 13.0578 7.65846C13.0153 8.38918 12.9748 9.08502 12.9748 9.81962C12.9748 10.0989 12.9636 10.3674 12.9523 10.636C12.9411 10.9045 12.9299 11.173 12.9299 11.4523C12.9299 11.5382 12.885 11.5812 12.7504 11.5812C12.6021 11.5812 12.4675 11.5682 12.3465 11.5565C12.2476 11.5469 12.1579 11.5382 12.0772 11.5382C11.9426 11.5382 11.8977 11.4953 11.8977 11.3664Z" fill="#00319C"/>
</svg>
