<svg width="24" height="24" viewBox="0 0 24 24" fill="none" xmlns="http://www.w3.org/2000/svg">
<path fill-rule="evenodd" clip-rule="evenodd" d="M21.2857 7.82452H4.85714C4.85714 7.13221 4.85714 6.02885 4.85714 5.05529C4.85714 4.88221 4.92411 4.70913 5.05804 4.57933C5.19196 4.44952 5.37054 4.38462 5.57143 4.38462C5.97321 4.38462 6.28571 4.6875 6.28571 5.07692C6.28571 5.46635 6.59821 5.76923 7 5.76923C7.40179 5.76923 7.71429 5.46635 7.71429 5.07692C7.71429 3.93029 6.75446 3 5.57143 3C4.99107 3 4.45536 3.21635 4.05357 3.60577C3.65179 3.99519 3.42857 4.51442 3.42857 5.07692C3.42857 6.05048 3.42857 7.15385 3.42857 7.84615H2.71429C2.3125 7.84615 2 8.14904 2 8.53846V18.9231C2 19.3125 2.3125 19.6154 2.71429 19.6154H3.42857V20.3077C3.42857 20.6971 3.74107 21 4.14286 21C4.54464 21 4.85714 20.6971 4.85714 20.3077V19.6154H19.1429V20.3077C19.1429 20.6971 19.4554 21 19.8571 21C20.2589 21 20.5714 20.6971 20.5714 20.3077V19.6154H21.2857C21.6875 19.6154 22 19.3125 22 18.9231V8.51683C22 8.1274 21.6875 7.82452 21.2857 7.82452ZM20.5714 11.2861H12.7143V9.20913H20.5714V11.2861ZM12.7143 18.2091V12.6707H20.5714V18.2091H12.7143ZM3.42857 18.2091V9.20913H11.2857V18.2091H3.42857ZM8.42857 10.5938C8.42857 10.9832 8.11607 11.2861 7.71429 11.2861H6.28571C5.88393 11.2861 5.57143 10.9832 5.57143 10.5938C5.57143 10.2043 5.88393 9.90144 6.28571 9.90144H7.71429C8.11607 9.90144 8.42857 10.2043 8.42857 10.5938ZM14.8571 14.0553V14.7476C14.8571 15.137 14.5446 15.4399 14.1429 15.4399C13.7411 15.4399 13.4286 15.137 13.4286 14.7476V14.0553C13.4286 13.6659 13.7411 13.363 14.1429 13.363C14.5446 13.363 14.8571 13.6659 14.8571 14.0553Z" fill="#E24C4B"/>
</svg>
