<svg width="24" height="24" viewBox="0 0 24 24" fill="none" xmlns="http://www.w3.org/2000/svg">
<path fill-rule="evenodd" clip-rule="evenodd" d="M11.4152 11.4586L19.6372 3.23401C19.9487 2.92216 20.4532 2.92216 20.7654 3.23301C21.0777 3.54405 21.0782 4.04761 20.7669 4.36005L12.5447 12.5848C12.3933 12.736 12.1901 12.8182 11.98 12.8182C11.7702 12.8182 11.5683 12.7366 11.416 12.5854C11.1041 12.274 11.1036 11.7705 11.4152 11.4586ZM11.1818 16.9091C11.1818 19.1684 9.35026 21 7.09091 21C4.83156 21 3 19.1684 3 16.9091C3 14.6498 4.83156 12.8182 7.09091 12.8182C9.35026 12.8182 11.1818 14.6498 11.1818 16.9091ZM9.54545 16.9091C9.54545 18.2647 8.44652 19.3637 7.09091 19.3637C5.7353 19.3637 4.63636 18.2647 4.63636 16.9091C4.63636 15.5535 5.7353 14.4546 7.09091 14.4546C8.44652 14.4546 9.54545 15.5535 9.54545 16.9091ZM15.5922 13.0346L13.0433 15.5851C12.8973 15.7321 12.8182 15.9265 12.8182 16.1345C12.8182 16.343 12.8974 16.5377 13.0433 16.6838C13.1895 16.8301 13.3839 16.9091 13.5921 16.9091C13.801 16.9091 13.9956 16.83 14.1414 16.6833L16.6875 14.1355C16.9606 13.8542 16.9816 13.415 16.7487 13.1083L16.6852 13.0346C16.3891 12.7461 15.8882 12.7461 15.5922 13.0346ZM14.3371 4.15587L14.4007 4.22683C14.6512 4.54287 14.6286 5.01018 14.3349 5.30412L8.59854 11.0503C8.44271 11.198 8.23963 11.2827 8.02569 11.2827C7.81175 11.2827 7.60868 11.198 7.44796 11.0455C7.13007 10.7274 7.13007 10.2073 7.44804 9.88909L13.1849 4.15347C13.4976 3.84056 14.0304 3.84056 14.3371 4.15587Z" fill="#E24C4B"/>
</svg>
