<svg width="24" height="24" viewBox="0 0 24 24" fill="none" xmlns="http://www.w3.org/2000/svg">
<path fill-rule="evenodd" clip-rule="evenodd" d="M3.73545 15.4286V8.57143C3.73545 8.09805 4.12395 7.71429 4.60318 7.71429H16.4218C16.6751 7.71429 16.9158 7.82362 17.0806 8.01361L20.0556 11.4422C20.3342 11.7632 20.3342 12.2368 20.0556 12.5578L17.0806 15.9864C16.9158 16.1763 16.6751 16.2857 16.4218 16.2857H4.60318C4.12395 16.2857 3.73545 15.902 3.73545 15.4286ZM2 15.4286V8.57143C2 7.15127 3.16549 6 4.60318 6H16.4218C17.1817 6 17.9037 6.32802 18.3983 6.89797L21.3733 10.3265C22.2089 11.2895 22.2089 12.7105 21.3733 13.6735L18.3983 17.1021C17.9037 17.672 17.1817 18 16.4218 18H4.60318C3.16549 18 2 16.8488 2 15.4286ZM15.8836 12C15.8836 12.4734 15.4951 12.8571 15.0159 12.8571C14.5366 12.8571 14.1482 12.4734 14.1482 12C14.1482 11.5266 14.5366 11.1429 15.0159 11.1429C15.4951 11.1429 15.8836 11.5266 15.8836 12ZM17.6191 12C17.6191 13.4202 16.4536 14.5714 15.0159 14.5714C13.5782 14.5714 12.4127 13.4202 12.4127 12C12.4127 10.5798 13.5782 9.42857 15.0159 9.42857C16.4536 9.42857 17.6191 10.5798 17.6191 12Z" fill="black"/>
</svg>
