<svg width="24" height="24" viewBox="0 0 24 24" fill="none" xmlns="http://www.w3.org/2000/svg">
<path d="M18.5787 7.2769C18.454 7.6075 18.0724 7.78384 17.7242 7.66085L16.6502 7.28397C16.3044 7.16292 16.1262 6.79375 16.252 6.46014C16.3776 6.12654 16.7602 5.95428 17.1064 6.07619L18.1804 6.45307C18.5264 6.57413 18.7047 6.9433 18.5787 7.2769Z" fill="#E24C4B"/>
<path d="M17.6016 9.86536C17.4769 10.196 17.0953 10.3723 16.7471 10.2493L15.6731 9.87243C15.3273 9.75138 15.1491 9.38221 15.2749 9.04861C15.4002 8.715 15.7833 8.54167 16.1293 8.66465L17.2033 9.04153C17.5491 9.16259 17.7276 9.53176 17.6016 9.86536Z" fill="#E24C4B"/>
<path d="M12.6667 14.5722V17.1433C12.6667 17.4984 12.3682 17.7861 12 17.7861C11.6318 17.7861 11.3333 17.4984 11.3333 17.1433V14.5722C11.3333 14.2172 11.6318 13.9294 12 13.9294C12.3682 13.9294 12.6667 14.2172 12.6667 14.5722Z" fill="#E24C4B"/>
<path d="M9.33333 14.5722V17.1433C9.33333 17.4984 9.03489 17.7861 8.66667 17.7861C8.29844 17.7861 8 17.4984 8 17.1433V14.5722C8 14.2172 8.29844 13.9294 8.66667 13.9294C9.03489 13.9294 9.33333 14.2172 9.33333 14.5722Z" fill="#E24C4B"/>
<path d="M16 14.5722V17.1433C16 17.4984 15.7016 17.7861 15.3333 17.7861C14.9651 17.7861 14.6667 17.4984 14.6667 17.1433V14.5722C14.6667 14.2172 14.9651 13.9294 15.3333 13.9294C15.7016 13.9294 16 14.2172 16 14.5722Z" fill="#E24C4B"/>
<path d="M21.3333 10.7155H19.7033C21.6009 5.42034 20.2876 3.67455 18.8162 3.15797C17.3036 2.62747 15.058 3.17961 12.932 8.81271C12.6802 9.47841 12.4778 10.1096 12.304 10.7155H11.5007L11.3156 8.67494C11.2531 7.98952 10.8018 7.40631 10.1384 7.15327C9.94711 7.08042 9.81711 6.91244 9.79933 6.71511L9.51556 3.58885C9.48356 3.23575 9.16422 2.97242 8.79356 3.00478L6.13644 3.22889C5.96044 3.24368 5.79756 3.32552 5.684 3.45622C5.57044 3.58692 5.51511 3.75533 5.53067 3.92545L5.81444 7.0515C5.83244 7.24883 5.73467 7.43588 5.55889 7.54022C4.95111 7.90061 4.612 8.55024 4.67422 9.23609L4.80844 10.7155H2.66667C2.29844 10.7155 2 11.0033 2 11.3583C2 11.7134 2.29844 12.0011 2.66667 12.0011H3.37911L3.91311 19.2092C3.98756 20.2135 4.864 21 5.90822 21H18.0918C19.136 21 20.0124 20.2135 20.0869 19.2092L20.6209 12.0011H21.3333C21.7016 12.0011 22 11.7134 22 11.3583C22 11.0033 21.7016 10.7155 21.3333 10.7155ZM6.25689 8.6353C6.86533 8.27492 7.20489 7.62528 7.14267 6.93922L6.91711 4.45339L8.24533 4.34133L8.47133 6.82717C8.53311 7.51258 8.98444 8.0958 9.64844 8.34905C9.83956 8.4219 9.96933 8.58988 9.98756 8.78721L10.1624 10.7155H6.14689L6.00222 9.1236C5.98444 8.92584 6.08244 8.73879 6.25689 8.6353ZM18.7569 19.1175C18.732 19.4524 18.44 19.7144 18.0918 19.7144H5.90822C5.56 19.7144 5.268 19.4524 5.24311 19.1175L4.716 12.0011C11.1818 12.0011 13.0769 12.0011 19.2838 12.0011L18.7569 19.1175ZM18.3011 10.6973C18.2989 10.7035 18.2964 10.7093 18.294 10.7155H13.6887C13.8329 10.2448 13.9929 9.76081 14.1849 9.25237C15.5502 5.6361 17.0336 3.90038 18.36 4.36597C19.6682 4.82534 19.6469 7.13292 18.3011 10.6973Z" fill="#E24C4B"/>
</svg>
