<svg width="24" height="24" viewBox="0 0 24 24" fill="none" xmlns="http://www.w3.org/2000/svg">
<path fill-rule="evenodd" clip-rule="evenodd" d="M17.9442 4.87738C17.8608 3.82748 16.9592 3 15.8647 3C14.7155 3 13.779 3.9123 13.779 5.03646V6.81001L13.7859 6.9734L13.7951 7.04569L13.7331 7.13844C13.4864 7.53517 13.353 7.99114 13.353 8.46581L13.3605 8.66084L13.3831 8.85348C13.4031 8.98098 13.433 9.10648 13.4723 9.22921L13.4989 9.30276L12.4069 11.1478L12.3138 11.3212L12.2364 11.5006L12.1713 11.6963H7.22397L7.21663 11.6799C7.11538 11.477 6.98027 11.2916 6.81611 11.1317L5.65025 9.99601L5.5176 9.87743L5.36485 9.76357C4.78891 9.37413 4.04632 9.29364 3.39582 9.54986L3.37827 9.55718L3.30955 9.48987L3.21899 9.416C2.96461 9.24365 2.61602 9.26827 2.38855 9.48986L2.19783 9.67565L2.11267 9.7771L2.05662 9.8776C1.94813 10.1205 1.99573 10.4152 2.19782 10.6121L2.24925 10.6622L2.1857 10.8342C1.96068 11.5439 2.14622 12.3359 2.70404 12.8793L3.79082 13.9381L3.76821 14.044C3.74058 14.2011 3.72655 14.361 3.72655 14.5225L3.73622 14.754L3.7649 14.9817C3.84094 15.4328 4.02812 15.8561 4.30897 16.2194L4.36027 16.2803L3.19885 18.7101L3.12996 18.869C2.69356 19.9901 3.21429 21.2696 4.34466 21.7831C4.66026 21.9265 4.99947 22 5.34214 22C5.61648 22 5.88972 21.9529 6.15169 21.86L6.34502 21.782L6.52887 21.6889C6.94618 21.4544 7.27993 21.1011 7.48804 20.6663L9.07604 17.3472H11.8575L13.4467 20.6663L13.5435 20.8476C13.8213 21.3169 14.2555 21.6729 14.7831 21.86C15.045 21.9529 15.3183 22 15.5926 22C15.9353 22 16.2744 21.9265 16.5901 21.7832L16.7474 21.7047L16.9034 21.6117C17.861 20.9902 18.2379 19.7587 17.7359 18.7101L16.5732 16.2803L16.6258 16.2194C17.0002 15.735 17.2082 15.1439 17.2082 14.5225L17.1995 14.3039L17.1739 14.0886C17.1173 13.7326 16.9914 13.3929 16.8039 13.0849L16.7631 13.0241L17.6142 11.5902L17.7081 11.4151L17.786 11.2339L17.8504 11.0335L18.5769 11.034L18.7672 11.0273L18.9659 11.0059C19.9489 10.8626 20.7714 10.1841 21.0794 9.2597L21.0816 9.24707L21.3417 9.24779L21.4485 9.23922C21.7613 9.18844 22 8.91828 22 8.59262V8.33907L21.9914 8.2328L21.9664 8.13199C21.8794 7.87163 21.6325 7.6839 21.3417 7.6839L21.0816 7.68339L21.0113 7.49108C20.6129 6.54452 19.6597 5.89761 18.5769 5.89761L17.9502 5.89695L17.9505 5.03646L17.9442 4.87738ZM14.3128 16.0022H6.62189C5.78434 16.0022 5.10299 15.3384 5.10299 14.5225C5.10299 13.7066 5.78438 13.0428 6.62192 13.0428H14.3128C15.1503 13.0428 15.8317 13.7066 15.8317 14.5225C15.8317 15.3384 15.1503 16.0022 14.3128 16.0022ZM16.5741 5.03646C16.5741 4.65546 16.2559 4.3455 15.8648 4.3455C15.4737 4.3455 15.1555 4.65546 15.1555 5.03646V6.25904C15.4141 6.16654 15.6934 6.11601 15.9846 6.11601H16.5741V5.03646ZM18.5769 7.24312C19.269 7.24312 19.8321 7.79164 19.8321 8.46584C19.8321 9.14004 19.269 9.68853 18.5769 9.68853H15.9846C15.2925 9.68853 14.7294 9.14001 14.7294 8.46584C14.7294 7.79164 15.2925 7.24312 15.9846 7.24312H18.5769ZM15.9846 10.8156C15.4221 10.8156 14.9043 10.6266 14.4936 10.311L13.598 11.8223L13.55 11.9157H14.3128C14.7914 11.9157 15.2406 12.0393 15.6297 12.2546L16.4232 10.9157C16.4425 10.8832 16.459 10.8496 16.4741 10.8156H15.9846ZM15.2524 20.5952C15.0038 20.507 14.8052 20.3298 14.6934 20.0961L13.2732 17.1293H14.3128C14.6842 17.1293 15.0382 17.055 15.36 16.9212L16.4892 19.2803C16.72 19.7627 16.5051 20.3381 16.0099 20.563C15.7701 20.6719 15.5011 20.6834 15.2524 20.5952ZM4.92469 20.563C5.16454 20.6719 5.43354 20.6834 5.68222 20.5952C5.93089 20.507 6.12943 20.3298 6.24127 20.0961L7.6614 17.1293H6.62189C6.25045 17.1293 5.89653 17.0551 5.57473 16.9212L4.44551 19.2803C4.2311 19.7282 4.40114 20.2563 4.82295 20.5096L4.92469 20.563ZM4.59576 12.8226L3.67561 11.9263L3.60093 11.8407C3.40181 11.5709 3.42671 11.1916 3.67564 10.9491C3.80959 10.8186 3.98772 10.7467 4.17716 10.7467C4.3666 10.7467 4.5447 10.8186 4.67868 10.9491L5.80046 12.0419C5.32802 12.1907 4.91297 12.4643 4.59576 12.8226Z" fill="black"/>
</svg>
