<svg width="140" height="70" viewBox="0 0 140 70" fill="none" xmlns="http://www.w3.org/2000/svg">
<path fill-rule="evenodd" clip-rule="evenodd" d="M45.8278 65.9973C45.8278 67.2837 45.5067 68.2724 44.8644 68.9635C44.2222 69.6545 43.3017 70 42.1029 70C40.904 70 39.9835 69.6545 39.3413 68.9635C38.6992 68.2724 38.378 67.2801 38.378 65.9867C38.378 64.6932 38.6992 63.7063 39.3413 63.0259C39.9871 62.342 40.9113 62 42.1137 62C43.3159 62 44.2347 62.3437 44.8698 63.0312C45.5084 63.7187 45.8278 64.7075 45.8278 65.9973ZM40.1173 65.9973C40.1173 66.8656 40.2833 67.5193 40.615 67.9588C40.9469 68.3983 41.4428 68.618 42.1029 68.618C43.4265 68.618 44.0884 67.7444 44.0884 65.9973C44.0884 64.2467 43.4302 63.3715 42.1136 63.3715C41.4535 63.3715 40.9558 63.5929 40.6204 64.0359C40.2851 64.4753 40.1173 65.1291 40.1173 65.9973Z" fill="black"/>
<path d="M14.6714 63.382C14.0469 63.382 13.5635 63.616 13.2211 64.0837C12.8785 64.548 12.7072 65.1964 12.7072 66.0292C12.7072 67.7621 13.362 68.6285 14.6714 68.6285C15.2208 68.6285 15.8863 68.4921 16.6676 68.2193V69.6013C16.0255 69.8671 15.3082 70 14.5161 70C13.378 70 12.5074 69.658 11.9045 68.9741C11.3015 68.2867 11 67.3015 11 66.0187C11 65.2107 11.1481 64.5036 11.4442 63.8977C11.7403 63.2881 12.1649 62.8221 12.7179 62.4997C13.2746 62.1736 13.9257 62.0107 14.6714 62.0107C15.4313 62.0107 16.1948 62.1932 16.9619 62.5581L16.4268 63.8977C16.1342 63.7595 15.8399 63.6389 15.5437 63.5363C15.2476 63.4335 14.9568 63.382 14.6714 63.382Z" fill="black"/>
<path fill-rule="evenodd" clip-rule="evenodd" d="M26.5728 69.8937V66.9116H27.4559L29.3237 69.8937H31.1647C30.8079 69.3833 30.0409 68.2547 28.8635 66.5076C29.3273 66.3056 29.6858 66.0275 29.9391 65.6731C30.1924 65.3152 30.3191 64.9076 30.3191 64.4505C30.3191 63.6673 30.0641 63.0844 29.5539 62.7016C29.0437 62.3153 28.257 62.1223 27.1936 62.1223H24.9138V69.8937H26.5728ZM27.1081 65.5721H26.5728V63.4724H27.0759C27.611 63.4724 28.0054 63.5504 28.2587 63.7063C28.5156 63.8623 28.6441 64.1245 28.6441 64.4931C28.6441 64.8651 28.5191 65.138 28.2694 65.3116C28.0196 65.4853 27.6325 65.5721 27.1081 65.5721Z" fill="black"/>
<path d="M58.6444 67.7356C58.6444 68.4372 58.3893 68.99 57.8791 69.394C57.3725 69.798 56.666 70 55.7598 70C54.9248 70 54.1863 69.8441 53.5441 69.5323V68.0013C54.0721 68.2352 54.5181 68.4 54.8821 68.4957C55.2496 68.5913 55.585 68.6392 55.8883 68.6392C56.2522 68.6392 56.5304 68.5701 56.7231 68.4319C56.9193 68.2937 57.0175 68.0881 57.0175 67.8153C57.0175 67.6629 56.9747 67.5283 56.889 67.4113C56.8034 67.2908 56.6767 67.1756 56.509 67.0657C56.3449 66.9559 56.0077 66.7805 55.4975 66.5396C55.0194 66.3163 54.6608 66.1019 54.4219 65.8964C54.1828 65.6908 53.9918 65.4516 53.8492 65.1788C53.7065 64.9059 53.635 64.5869 53.635 64.2219C53.635 63.5344 53.8687 62.994 54.3362 62.6007C54.8071 62.2073 55.4565 62.0107 56.2842 62.0107C56.6909 62.0107 57.0781 62.0585 57.4456 62.1541C57.8166 62.2499 58.2038 62.3845 58.607 62.5581L58.0718 63.8392C57.6544 63.6691 57.3083 63.5504 57.0335 63.4831C56.7624 63.4157 56.4948 63.382 56.2307 63.382C55.9167 63.382 55.6759 63.4547 55.5083 63.6C55.3405 63.7453 55.2567 63.9349 55.2567 64.1688C55.2567 64.314 55.2906 64.4416 55.3583 64.5515C55.4262 64.6579 55.5332 64.7624 55.6795 64.8651C55.8293 64.9644 56.1807 65.1451 56.7338 65.4073C57.4652 65.7545 57.9665 66.1036 58.2377 66.4545C58.5088 66.8017 58.6444 67.2288 58.6444 67.7356Z" fill="black"/>
<path d="M70.4924 69.394C71.0026 68.99 71.2576 68.4372 71.2576 67.7356C71.2576 67.2288 71.1221 66.8017 70.8509 66.4545C70.5798 66.1036 70.0784 65.7545 69.3471 65.4073C68.794 65.1451 68.4427 64.9644 68.2928 64.8651C68.1465 64.7624 68.0395 64.6579 67.9716 64.5515C67.9039 64.4416 67.87 64.314 67.87 64.1688C67.87 63.9349 67.9538 63.7453 68.1215 63.6C68.2891 63.4547 68.53 63.382 68.844 63.382C69.108 63.382 69.3757 63.4157 69.6468 63.4831C69.9216 63.5504 70.2677 63.6691 70.6851 63.8392L71.2202 62.5581C70.817 62.3845 70.4299 62.2499 70.0589 62.1541C69.6913 62.0585 69.3042 62.0107 68.8975 62.0107C68.0698 62.0107 67.4204 62.2073 66.9494 62.6007C66.482 62.994 66.2484 63.5344 66.2484 64.2219C66.2484 64.5869 66.3197 64.9059 66.4624 65.1788C66.6051 65.4516 66.796 65.6908 67.0351 65.8964C67.2741 66.1019 67.6328 66.3163 68.1108 66.5396C68.621 66.7805 68.9581 66.9559 69.1222 67.0657C69.29 67.1756 69.4167 67.2908 69.5023 67.4113C69.5879 67.5283 69.6307 67.6629 69.6307 67.8153C69.6307 68.0881 69.5326 68.2937 69.3364 68.4319C69.1437 68.5701 68.8655 68.6392 68.5015 68.6392C68.1982 68.6392 67.8629 68.5913 67.4953 68.4957C67.1314 68.4 66.6854 68.2352 66.1574 68.0013V69.5323C66.7997 69.8441 67.5381 70 68.3731 70C69.2793 70 69.9858 69.798 70.4924 69.394Z" fill="black"/>
<path fill-rule="evenodd" clip-rule="evenodd" d="M80.9114 69.8937V66.9116H81.7944L83.6622 69.8937H85.5033C85.1465 69.3833 84.3794 68.2547 83.2019 66.5076C83.6657 66.3056 84.0244 66.0275 84.2777 65.6731C84.531 65.3152 84.6577 64.9076 84.6577 64.4505C84.6577 63.6673 84.4026 63.0844 83.8923 62.7016C83.3821 62.3153 82.5954 62.1223 81.5322 62.1223H79.2523V69.8937H80.9114ZM81.4465 65.5721H80.9114V63.4724H81.4145C81.9496 63.4724 82.3439 63.5504 82.5972 63.7063C82.8541 63.8623 82.9825 64.1245 82.9825 64.4931C82.9825 64.8651 82.8577 65.138 82.6079 65.3116C82.3582 65.4853 81.9711 65.5721 81.4465 65.5721Z" fill="black"/>
<path fill-rule="evenodd" clip-rule="evenodd" d="M100.166 65.9973C100.166 67.2837 99.8452 68.2724 99.203 68.9635C98.5607 69.6545 97.6403 70 96.4414 70C95.2426 70 94.3221 69.6545 93.6798 68.9635C93.0376 68.2724 92.7165 67.2801 92.7165 65.9867C92.7165 64.6932 93.0376 63.7063 93.6798 63.0259C94.3257 62.342 95.2497 62 96.4521 62C97.6545 62 98.5733 62.3437 99.2084 63.0312C99.847 63.7187 100.166 64.7075 100.166 65.9973ZM94.4559 65.9973C94.4559 66.8656 94.6218 67.5193 94.9536 67.9588C95.2854 68.3983 95.7814 68.618 96.4414 68.618C97.7651 68.618 98.427 67.7444 98.427 65.9973C98.427 64.2467 97.7686 63.3715 96.4521 63.3715C95.792 63.3715 95.2944 63.5929 94.9589 64.0359C94.6235 64.4753 94.4559 65.1291 94.4559 65.9973Z" fill="black"/>
<path fill-rule="evenodd" clip-rule="evenodd" d="M112.587 68.0439L113.154 69.8937H114.942L112.169 62.0904H110.141L107.38 69.8937H109.167L109.734 68.0439H112.587ZM111.302 63.818C111.37 64.0376 111.666 64.9856 112.191 66.6617H110.152C110.708 64.8723 111.046 63.7507 111.163 63.2971C111.192 63.4245 111.238 63.5983 111.302 63.818Z" fill="black"/>
<path fill-rule="evenodd" clip-rule="evenodd" d="M129 65.9336C129 67.2128 128.632 68.1927 127.897 68.8731C127.166 69.5535 126.108 69.8937 124.724 69.8937H122.508V62.1223H124.965C126.242 62.1223 127.234 62.4572 127.94 63.1269C128.647 63.7967 129 64.7323 129 65.9336ZM127.277 65.9761C127.277 64.3069 126.535 63.4724 125.05 63.4724H124.167V68.5329H124.879C126.477 68.5329 127.277 67.6807 127.277 65.9761Z" fill="black"/>
<path fill-rule="evenodd" clip-rule="evenodd" d="M8 0H0V46.0005C0 50.4185 3.58172 54 8 54H132C136.419 54 140 50.4185 140 46.0005V0H132V40.6675C132 43.6128 129.612 46.0005 126.667 46.0005H13.3333C10.3878 46.0005 8 43.6128 8 40.6675V0Z" fill="#009900"/>
</svg>
